<svg width="207" height="207" viewBox="0 0 207 207" fill="none" xmlns="http://www.w3.org/2000/svg">
<g clip-path="url(#clip0)">
<path d="M75.6883 186.999C83.0702 186.999 90.1497 184.066 95.3695 178.846C100.589 173.627 103.522 166.547 103.522 159.165V131.332H75.6883C68.3065 131.332 61.2269 134.264 56.0072 139.484C50.7874 144.704 47.855 151.784 47.855 159.165C47.855 166.547 50.7874 173.627 56.0072 178.846C61.2269 184.066 68.3065 186.999 75.6883 186.999V186.999Z" fill="#0ACF83"/>
<path d="M47.855 103.501C47.855 96.1194 50.7874 89.0399 56.0072 83.8202C61.2269 78.6004 68.3065 75.668 75.6883 75.668H103.522V131.335H75.6883C68.3065 131.335 61.2269 128.402 56.0072 123.182C50.7874 117.963 47.855 110.883 47.855 103.501V103.501Z" fill="#A259FF"/>
<path d="M47.855 47.8333C47.855 40.4552 50.7844 33.379 55.9995 28.1599C61.2146 22.9407 68.2885 20.0058 75.6666 20H103.5V75.6667H75.6883C68.3065 75.6667 61.2269 72.7342 56.0072 67.5145C50.7874 62.2947 47.855 55.2152 47.855 47.8333V47.8333Z" fill="#F24E1E"/>
<path d="M103.522 20H131.355C138.737 20 145.816 22.9324 151.036 28.1522C156.256 33.372 159.188 40.4515 159.188 47.8333C159.188 55.2152 156.256 62.2947 151.036 67.5145C145.816 72.7342 138.737 75.6667 131.355 75.6667H103.522V20Z" fill="#FF7262"/>
<path d="M159.188 103.501C159.188 110.883 156.256 117.963 151.036 123.182C145.816 128.402 138.737 131.335 131.355 131.335C123.973 131.335 116.894 128.402 111.674 123.182C106.454 117.963 103.522 110.883 103.522 103.501C103.522 96.1194 106.454 89.0399 111.674 83.8202C116.894 78.6004 123.973 75.668 131.355 75.668C138.737 75.668 145.816 78.6004 151.036 83.8202C156.256 89.0399 159.188 96.1194 159.188 103.501V103.501Z" fill="#1ABCFE"/>
</g>
<defs>
<clipPath id="clip0">
<rect width="167" height="167" fill="white" transform="translate(20 20)"/>
</clipPath>
</defs>
</svg>
