<svg width="207" height="207" viewBox="0 0 207 207" fill="none" xmlns="http://www.w3.org/2000/svg">
<path d="M34.5 21.5625H181.125L163.875 168.187L107.813 185.437L47.4375 168.187L34.5 21.5625Z" fill="#E7A42B"/>
<path d="M166.592 34.5L152.016 158.312L107.812 171.896V34.5H166.592Z" fill="#F2BF22"/>
<path d="M107.813 90.5625L112.125 99.1875L107.813 107.812H68.0947L71.7603 51.75H107.813L112.125 60.375L107.813 69H90.6922L89.2691 90.5625H107.813Z" fill="#FAF9F8"/>
<path d="M107.381 140.458L107.813 140.329L112.125 150.938L107.813 158.355L107.554 158.441L71.6308 148.178L69.2158 120.75H86.5521L87.7596 134.852L107.381 140.458Z" fill="#EBEBEB"/>
<path d="M146.927 90.5625L140.156 148.436L107.812 158.355V140.329L124.329 135.24L127.521 107.812H107.812V90.5625H146.927Z" fill="white"/>
<path d="M150.592 77.625H133.386L132.264 69H107.812V51.75H147.186L147.919 57.1838L150.592 77.625Z" fill="white"/>
</svg>
