<svg width="207" height="207" viewBox="0 0 207 207" fill="none" xmlns="http://www.w3.org/2000/svg">
<path d="M207 103.5C207 109.761 206.442 115.89 205.378 121.843C196.722 170.255 154.401 207 103.5 207C65.15 207 31.671 186.144 13.793 155.153C9.42901 147.595 5.99896 139.438 3.64999 130.832C1.26747 122.126 0 112.959 0 103.5C0 46.3385 46.3385 0 103.5 0C150.679 0 190.482 31.5655 202.949 74.731C205.585 83.8645 207 93.5175 207 103.5Z" fill="#8F9ED1"/>
<path d="M52.6285 72.0615H14.5109L3.6499 130.833C5.99887 139.438 9.42892 147.596 13.7929 155.153H17.3289L21.5364 132.392H42.4814C67.9845 132.392 74.8409 109.495 76.4844 98.249C78.1319 87.0076 69.9069 72.0615 52.6285 72.0615ZM58.1584 100.146C57.2249 106.521 52.5144 119.502 38.0584 119.502H23.9189L30.2389 85.2966H44.6319C58.6614 85.2966 59.0919 93.7711 58.1584 100.146Z" fill="#F2F2F2"/>
<path d="M202.948 74.7315C199.708 73.0585 195.847 72.0615 191.386 72.0615H153.268L137.912 155.153H156.086L160.293 132.392H181.238C192.581 132.392 200.236 127.863 205.377 121.843C206.442 115.891 207 109.761 207 103.5C207 93.518 205.585 83.865 202.948 74.7315ZM196.916 100.146C195.982 106.521 191.272 119.503 176.811 119.503H162.676L168.996 85.297H183.389C197.419 85.297 197.849 93.7715 196.916 100.146Z" fill="#F2F2F2"/>
<path d="M125.024 72.3366C117.627 72.3366 107.759 72.3366 102.95 72.3366L107.094 49.918H88.9948L73.6384 133.007H91.7372L100.568 85.2252C103.831 85.2252 108.165 85.2252 112.135 85.2252C119.813 85.2252 125.024 86.8707 123.926 94.0005C122.83 101.13 116.523 132.666 116.523 132.666H134.895C134.895 132.666 142.025 97.5656 143.122 87.693C144.219 77.8209 135.17 72.3366 125.024 72.3366Z" fill="#F2F2F2"/>
</svg>
