<svg width="207" height="207" viewBox="0 0 207 207" fill="none" xmlns="http://www.w3.org/2000/svg">
<path d="M20.4866 22.751H186.513V184.25H20.4866V22.751Z" fill="#0C0824"/>
<path d="M20.4865 22.7512H186.513V184.25H20.4865V22.7512ZM12.9375 191.799H194.062V15.2021H12.9375V191.799ZM135.048 87.6522C129.084 87.6522 127.046 90.6731 127.046 93.1635C127.046 95.8804 128.405 97.7693 136.407 101.916C148.257 107.654 151.932 113.158 151.932 121.238C151.932 133.315 142.726 139.803 130.274 139.803C124.93 140.001 119.618 138.891 114.801 136.569C114.27 136.342 114.199 135.967 114.199 135.359V124.252C114.199 123.495 114.575 123.269 115.105 123.651C119.629 126.56 124.895 128.105 130.274 128.101C136.238 128.101 138.729 125.611 138.729 122.215C138.729 119.498 136.995 117.085 129.369 113.158C118.65 108.029 114.199 102.808 114.199 94.1403C114.199 84.4048 121.82 76.3318 135.029 76.3318C139.627 76.1344 144.218 76.8534 148.535 78.4471C148.784 78.6085 148.985 78.8332 149.118 79.0981C149.251 79.363 149.311 79.6585 149.292 79.9543V90.3043C149.292 90.9059 148.917 91.2876 148.16 91.0612C144.17 88.7641 139.632 87.5906 135.029 87.6651L135.048 87.6522ZM70.1407 96.6308C71.8743 96.7796 73.2327 96.7796 76.2536 96.7796C85.0835 96.7796 93.3829 93.6875 93.3829 81.688C93.3829 72.1013 87.4187 67.2756 77.3857 67.2756C74.3648 67.2756 71.4991 67.4244 70.1407 67.502V96.6308ZM56.7051 56.5245C56.7051 55.9941 57.7595 55.6189 58.3675 55.6189C63.1997 55.3925 70.3671 55.2437 77.8385 55.2437C98.7455 55.2437 106.896 66.7128 106.896 81.3581C106.896 100.525 93.0077 108.753 75.9561 108.753C73.0904 108.753 72.1072 108.604 70.0695 108.604V137.584C70.0695 138.186 69.8431 138.49 69.1639 138.49H57.6172C57.0156 138.49 56.7115 138.264 56.7115 137.584V56.5569L56.7051 56.5245Z" fill="#31C5F0"/>
</svg>
